<?xml version="1.0" encoding="UTF-8" standalone="no"?>
<svg
   xmlns:dc="http://purl.org/dc/elements/1.1/"
   xmlns:cc="http://creativecommons.org/ns#"
   xmlns:rdf="http://www.w3.org/1999/02/22-rdf-syntax-ns#"
   xmlns:svg="http://www.w3.org/2000/svg"
   xmlns="http://www.w3.org/2000/svg"
   xmlns:sodipodi="http://sodipodi.sourceforge.net/DTD/sodipodi-0.dtd"
   xmlns:inkscape="http://www.inkscape.org/namespaces/inkscape"
   inkscape:version="1.0 (4035a4fb49, 2020-05-01)"
   sodipodi:docname="new.svg"
   id="svg3065"
   version="1.1"
   viewBox="0 0 0.42276283 0.20146053"
   height="40.292107"
   width="84.552567">
  <defs
     id="defs3059" />
  <sodipodi:namedview
     inkscape:window-maximized="1"
     inkscape:window-y="-9"
     inkscape:window-x="-9"
     inkscape:window-height="1001"
     inkscape:window-width="1920"
     showgrid="false"
     inkscape:document-rotation="0"
     inkscape:current-layer="layer1"
     inkscape:document-units="mm"
     inkscape:cy="19.5226"
     inkscape:cx="39.597691"
     inkscape:zoom="10.664146"
     inkscape:pageshadow="2"
     inkscape:pageopacity="0.0"
     borderopacity="1.0"
     bordercolor="#666666"
     pagecolor="#ffffff"
     id="base" />
  <metadata
     id="metadata3062">
    <rdf:RDF>
      <cc:Work
         rdf:about="">
        <dc:format>image/svg+xml</dc:format>
        <dc:type
           rdf:resource="http://purl.org/dc/dcmitype/StillImage" />
        <dc:title></dc:title>
      </cc:Work>
    </rdf:RDF>
  </metadata>
  <g
     transform="translate(-0.10064545,-0.29756699)"
     style="display:inline"
     id="layer1"
     inkscape:groupmode="layer"
     inkscape:label="Layer 1">
    <g
       transform="rotate(-7,0.4263916,0.39919415)"
       style="font-size:0.2px;line-height:1.25;font-family:'Cedarville Cursive';-inkscape-font-specification:'Cedarville Cursive';stroke-width:0.005"
       id="text3095"
       aria-label="y">
      <path
         id="path3097"
         style="font-style:normal;font-variant:normal;font-weight:normal;font-stretch:normal;font-family:'Loved by the King';-inkscape-font-specification:'Loved by the King';stroke-width:0.005"
         d="m 0.4450436,0.30939965 h 0.004199 l 0.005469,0.005371 q -0.002637,0.005469 -0.002637,0.0148437 v 0.00957 l -0.001562,0.0350586 0.001562,0.001367 v 0.001367 l -0.001562,0.0133789 q 0,0.0986328 -0.009277,0.0986328 h -0.005371 l -0.005371,-0.006738 q 0.008008,-0.00625 0.008008,-0.0256836 0.004004,-0.0370117 0.004004,-0.10400391 h -0.00127 q -0.001953,6.8359e-4 -0.0189453,0.0446289 -0.005859,0.005371 -0.012207,0.006836 -0.0120117,0 -0.0120117,-0.040625 0,-0.0322266 0.0120117,-0.0391602 l 0.004199,0.001367 v 0.005371 q -0.007031,0.008398 -0.007031,0.0255859 v 0.008203 q 0,0.0242188 0.005469,0.0242188 h 0.001562 q 0.0253906,-0.0431641 0.0253906,-0.0713867 z" />
    </g>
    <g
       style="font-style:normal;font-variant:normal;font-weight:normal;font-stretch:normal;font-size:0.2px;line-height:1.25;font-family:'Reenie Beanie';-inkscape-font-specification:'Reenie Beanie';stroke-width:0.005"
       id="text3069"
       transform="rotate(-7)"
       aria-label="Z">
      <path
         sodipodi:nodetypes="csssccccsccccccsscscssccscssscssccccscssscscscsccsscscc"
         id="path3076"
         style="font-style:normal;font-variant:normal;font-weight:normal;font-stretch:normal;font-family:'Reenie Beanie';-inkscape-font-specification:'Reenie Beanie';stroke-width:0.005"
         d="m 0.07619693,0.36325289 c 4e-4,0 0.0014667,2.6667e-4 0.0032,8e-4 0.0017333,5.3333e-4 0.0032,8e-4 0.0044,8e-4 0.0057333,0 0.01046667,6.667e-5 0.0142,2e-4 0.0037333,1.3333e-4 0.007,3.3333e-4 0.0098,6e-4 0.001333,1.3333e-4 0.0034,2e-4 0.0062,2e-4 0.0028,-1.3333e-4 0.0056,6.667e-5 0.0084,6e-4 0.002933,5.3333e-4 0.005467,0.001533 0.0076,0.003 0.002133,0.001333 0.0032,0.003467 0.0032,0.0064 0,0.0024 -8e-4,0.005267 -0.0024,0.0086 -0.001467,0.003333 -0.003467,0.006867 -0.006,0.0106 -0.0024,0.003733 -0.005133,0.0076 -0.0082,0.0116 -0.002933,0.004 -0.005867,0.007867 -0.0088,0.0116 -0.003067,0.004 -0.005867,0.007533 -0.0084,0.0106 -0.0024,0.003067 -0.0044667,0.006 -0.0062,0.0088 -0.0016,0.002667 -0.0028667,0.0052 -0.0038,0.0076 -9.3333e-4,0.0024 -0.0014,0.004867 -0.0014,0.0074 0,5.3333e-4 2.6667e-4,0.001 8e-4,0.0014 5.3333e-4,2.6667e-4 0.0012,4.6667e-4 0.002,6e-4 l 0.0024,4e-4 0.002,0 c 0.0021333,0 0.0062667,-6e-4 0.01240001,-0.0018 0.006133,-0.0012 0.0131333,-0.002533 0.021,-0.004 0.008,-0.0016 0.0162,-0.003 0.0246,-0.0042 0.008533,-0.0012 0.0162,-0.0018 0.023,-0.0018 0.001467,0 0.002733,3.3333e-4 0.0038,0.001 0.001067,5.3333e-4 0.0016,0.001867 0.0016,0.004 0,0.001467 -8e-4,0.0026 -0.0024,0.0034 -0.0016,8e-4 -0.0034,0.0012 -0.0054,0.0012 l -0.0018,0 c -8e-4,-1.3333e-4 -0.001667,-2.6667e-4 -0.0026,-4e-4 -9.3333e-4,-1.3333e-4 -0.001733,-2.6667e-4 -0.0024,-4e-4 l -0.001,-2e-4 c -0.004533,0 -0.009933,8e-4 -0.0162,0.0024 -0.006267,0.001467 -0.0127333,0.003133 -0.0194,0.005 -0.006533,0.001733 -0.013,0.003333 -0.0194,0.0048 -0.0064,0.0016 -0.01206667,0.0024 -0.01700001,0.0024 -0.0061333,0 -0.0106,-8e-4 -0.0134,-0.0024 -0.0028,-0.001467 -0.0042,-0.004667 -0.0042,-0.0096 0,-0.003333 0.0011333,-0.007267 0.0034,-0.0118 0.0022667,-0.004533 0.0050667,-0.009267 0.0084,-0.0142 0.0033333,-0.004933 0.007,-0.009933 0.01100001,-0.015 0.004,-0.0052 0.0076667,-0.0100667 0.011,-0.0146 0.003333,-0.004533 0.006133,-0.0086 0.0084,-0.0122 0.002267,-0.003733 0.0034,-0.006667 0.0034,-0.0088 0,-0.001733 -0.001333,-0.003067 -0.004,-0.004 -0.002533,-9.3333e-4 -0.005267,-0.0014 -0.0082,-0.0014 -0.0016,0 -0.002933,1.3333e-4 -0.004,4e-4 l -0.0042,6e-4 c -0.0017333,1.3333e-4 -0.0042667,2.6667e-4 -0.0076,4e-4 -0.0033333,1.3333e-4 -0.0082,2e-4 -0.0146,2e-4 -0.002,0 -0.0038667,-4.6667e-4 -0.0056,-0.0014 -0.0016,-0.001067 -0.0024,-0.002267 -0.0024,-0.0036 0,-9.3333e-4 6e-4,-0.002067 0.0018,-0.0034 0.0012,-0.001467 0.0022,-0.002267 0.003,-0.0024" />
    </g>
    <g
       style="font-style:normal;font-variant:normal;font-weight:normal;font-stretch:normal;font-size:0.15px;line-height:1.25;font-family:'Give You Glory';-inkscape-font-specification:'Give You Glory, Normal';font-variant-ligatures:normal;font-variant-caps:normal;font-variant-numeric:normal;font-variant-east-asian:normal;stroke-width:0.005"
       id="text3081"
       transform="rotate(-7)"
       aria-label=".">
      <path
         id="path3083"
         style="font-style:normal;font-variant:normal;font-weight:normal;font-stretch:normal;font-size:0.15px;font-family:'Give You Glory';-inkscape-font-specification:'Give You Glory, Normal';font-variant-ligatures:normal;font-variant-caps:normal;font-variant-numeric:normal;font-variant-east-asian:normal;stroke-width:0.005"
         d="m 0.19477503,0.45564686 q -4.3945e-4,-7.3242e-4 -0.001318,-0.00293 -8.789e-4,-0.002344 -0.001611,-0.00498 -5.8594e-4,-0.002637 -7.3243e-4,-0.005127 0,-0.002637 0.001465,-0.004248 0.005713,7.3243e-4 0.008643,0.003223 0.00293,0.00249 0.003662,0.005566 8.789e-4,0.003076 0,0.006152 -8.7891e-4,0.00293 -0.002637,0.004688 -0.001611,0.001611 -0.003662,0.001465 -0.002051,-2.9296e-4 -0.00381,-0.003809 z" />
    </g>
    <g
       style="font-size:0.2px;line-height:1.25;font-family:'Cedarville Cursive';-inkscape-font-specification:'Cedarville Cursive';stroke-width:0.005"
       id="text3088"
       transform="rotate(-7)"
       aria-label="G">
      <path
         id="path3090"
         style="font-style:normal;font-variant:normal;font-weight:normal;font-stretch:normal;font-family:Zeyada;-inkscape-font-specification:Zeyada;stroke-width:0.005"
         d="m 0.31635792,0.42094284 q -0.0132813,0.0105469 -0.0263672,0.0197266 -0.0130859,0.00918 -0.028125,0.0162109 -0.001563,-3.9063e-4 -0.00293,-1.9532e-4 -0.001367,1.9532e-4 -0.002734,5.8594e-4 -0.001172,5.8594e-4 -0.002734,9.7656e-4 -0.001367,3.9063e-4 -0.002734,3.9063e-4 -0.003906,0 -0.007617,-0.001563 -0.003516,-0.001563 -0.00625,-0.004102 -0.002734,-0.002734 -0.004297,-0.00625 -0.001562,-0.003516 -0.001562,-0.007422 0,-0.0117188 0.004883,-0.0226563 0.005078,-0.0111328 0.0123047,-0.0210937 0.007422,-0.0101563 0.0162109,-0.0191406 0.008789,-0.00918 0.0162109,-0.0167969 l -0.005273,-0.003516 0.001758,-0.001563 q 0.004297,1.9531e-4 0.007813,-7.8125e-4 0.003516,-0.001172 0.006641,-0.002539 0.003125,-0.001367 0.00625,-0.002539 0.00332,-0.001172 0.007227,-0.001172 0.001172,0 0.002344,0 0.001172,0 0.001953,3.9062e-4 9.7656e-4,1.9531e-4 0.001367,9.7656e-4 5.8594e-4,7.8125e-4 5.8594e-4,0.002148 0,5.8594e-4 -0.003125,0.00293 -0.003125,0.002148 -0.008398,0.005859 -0.005078,0.003516 -0.0117188,0.008398 -0.006641,0.004883 -0.0136719,0.0109375 -0.006836,0.006055 -0.0134766,0.0130859 -0.006445,0.006836 -0.0117188,0.0144531 -0.005273,0.007422 -0.008398,0.015625 -0.003125,0.008203 -0.003125,0.0166016 0,0.00332 0.001367,0.005469 0.001367,0.001953 0.00332,0.00332 0.002148,0.001367 0.004688,0.001953 0.002734,3.9063e-4 0.005273,3.9063e-4 0.008594,0 0.0179688,-0.004492 0.009375,-0.004492 0.0181641,-0.0109375 0.008789,-0.006445 0.0164063,-0.0138672 0.007813,-0.007422 0.0132812,-0.0134766 0.001172,-0.001172 0.001367,-0.002344 3.9063e-4,-0.001172 3.9063e-4,-0.002734 0,-3.9063e-4 -1.9532e-4,-9.7657e-4 0,-5.8593e-4 0,-5.8593e-4 -0.005859,0.001172 -0.0109375,0.002734 -0.005078,0.001367 -0.0101563,0.003125 -0.004883,0.001563 -0.009766,0.003516 -0.004688,0.001758 -0.009961,0.004102 -1.9531e-4,0 -3.9062e-4,0 0,1.9531e-4 -5.8594e-4,1.9531e-4 -0.001563,0 -0.002148,-0.001172 -5.8594e-4,-0.001172 -5.8594e-4,-0.002344 0,-0.002148 0.003125,-0.004297 0.00332,-0.002344 0.007617,-0.004102 0.004297,-0.001953 0.008594,-0.00332 0.004297,-0.001367 0.006445,-0.001953 5.8594e-4,-1.9531e-4 0.00332,-9.7656e-4 0.00293,-7.8125e-4 0.006055,-0.001563 0.003125,-9.7656e-4 0.005859,-0.001563 0.002734,-7.8125e-4 0.003516,-9.7656e-4 0.001562,-3.9063e-4 0.002734,-0.001172 0.001172,-9.7656e-4 0.002344,-0.001758 0.001172,-9.7656e-4 0.002344,-0.001562 0.001172,-7.8125e-4 0.00293,-7.8125e-4 9.7656e-4,0 0.001758,1.9531e-4 9.7656e-4,1.9531e-4 0.001562,0.001563 h 0.0306641 q 1.9531e-4,0 9.7656e-4,1.9531e-4 7.8125e-4,1.9532e-4 0.001563,5.8594e-4 9.7657e-4,1.9531e-4 0.001562,5.8594e-4 5.8594e-4,1.9531e-4 9.7657e-4,1.9531e-4 0,1.9531e-4 1.9531e-4,3.9063e-4 0,1.9531e-4 0,3.9062e-4 0,0 0,1.9531e-4 0,1.9532e-4 0,3.9063e-4 0,0 0,1.9531e-4 -1.9531e-4,1.9531e-4 -1.9531e-4,3.9063e-4 -1.9532e-4,3.9062e-4 -7.8125e-4,9.7656e-4 -5.8594e-4,5.8594e-4 -7.8125e-4,5.8594e-4 -0.001563,0 -0.005273,3.9062e-4 -0.003516,1.9531e-4 -0.007617,5.8594e-4 -0.004102,1.9531e-4 -0.007813,3.9062e-4 -0.003516,1.9532e-4 -0.004883,3.9063e-4 -0.004297,5.8594e-4 -0.006641,0.001758 -0.002344,0.001172 -0.003711,0.005078 -0.002148,0.007227 -0.00332,0.0134766 -0.001172,0.006055 -0.001758,0.0119141 -3.9062e-4,0.005859 -3.9062e-4,0.0121094 0,0.00625 0,0.0136719 0,0.001172 0,0.004688 0,0.003516 0,0.007227 1.9531e-4,0.003906 1.9531e-4,0.007227 1.9531e-4,0.00332 1.9531e-4,0.004688 1.9531e-4,0.001172 9.7656e-4,0.004102 7.8125e-4,0.00293 0.001562,0.006055 9.7657e-4,0.00332 0.001563,0.00625 5.8594e-4,0.00293 9.7657e-4,0.004102 1.9531e-4,3.9063e-4 1.9531e-4,0.001953 1.9531e-4,0.001758 1.9531e-4,0.002344 -0.003125,0 -0.005469,-0.002344 -0.002148,-0.002344 -0.003711,-0.006055 -0.001563,-0.003711 -0.002539,-0.008203 -7.8125e-4,-0.004492 -0.001367,-0.008789 -3.9062e-4,-0.004297 -5.8593e-4,-0.007813 -1.9532e-4,-0.003516 -1.9532e-4,-0.005273 -1.9531e-4,-0.002344 -3.9062e-4,-0.008008 0,-0.005859 0,-0.0123047 0,-0.006641 0,-0.0123047 1.9531e-4,-0.005859 3.9062e-4,-0.008203 z" />
    </g>
    <g
       style="font-size:0.15px;line-height:1.25;font-family:'Cedarville Cursive';-inkscape-font-specification:'Cedarville Cursive';stroke-width:0.005"
       id="text3102"
       transform="rotate(-7,-0.08105013,0.03187139)"
       aria-label=".">
      <path
         sodipodi:nodetypes="ccccscccsscssccccccssccccc"
         id="path3107"
         style="font-size:0.15px;stroke-width:0.005"
         d="m 0.41030242,0.46832125 c 0,-0.001855 6.3467e-4,-0.003369 0.001904,-0.004541 0.001367,-0.001172 0.002979,-0.0021 0.004834,-0.002783 0.001953,-6.8333e-4 0.003906,-0.001172 0.005859,-0.001465 0.002051,-3.9062e-4 0.003808,-5.8593e-4 0.005273,-5.8593e-4 8.7867e-4,0 0.001806,4.883e-5 0.002783,1.4648e-4 0.001074,0 0.002051,1.9531e-4 0.00293,5.8594e-4 9.7667e-4,2.9297e-4 0.001807,7.813e-4 0.00249,0.001465 6.8333e-4,5.8594e-4 0.001025,0.001514 0.001025,0.002783 0,0.001758 -3.9067e-4,0.003272 -0.001172,0.004541 -7.8133e-4,0.001269 -0.001758,0.002344 -0.00293,0.003223 -0.001172,7.8133e-4 -0.00249,0.001367 -0.003955,0.001758 -0.001465,3.9063e-4 -0.002978,5.8594e-4 -0.004541,5.8594e-4 h -0.004102 c -0.00166,9.765e-5 -0.003271,0 -0.004834,-2.9297e-4 -0.001465,-2.9297e-4 -0.002783,-8.2997e-4 -0.003955,-0.001611 -0.001074,-8.7867e-4 -0.001611,-0.002148 -0.001611,-0.003809 z m 0.0153209,-0.001715 -1.5597e-4,-7.7108e-4 c 0,0 -0.00127,-7.6135e-4 -0.001731,-5.7292e-4 -8.0624e-4,3.2958e-4 -0.001132,-1.227e-4 -0.002451,0.001133 v 0 c 0,0 -5.4322e-4,0.001318 -6.4022e-4,0.001806 l 0.005479,-3.2058e-4 z" />
    </g>
    <path
       sodipodi:nodetypes="csscc"
       id="path3110"
       d="m 0.12617971,0.47505907 c 0,0 0.0978248,-0.0215587 0.18997466,-0.0399902 0.040248,-0.00805 0.0878151,-0.0152922 0.11215284,-0.0191263 0.0293356,-0.004621 0.0683942,-0.003714 0.0683942,-0.003714 0.0232999,0.001072 0.006718,0.0194281 1.3478e-4,0.0194281"
       style="fill:none;stroke:#000000;stroke-width:0.00500787;stroke-linecap:round;stroke-linejoin:round;stroke-miterlimit:4;stroke-dasharray:none;stroke-opacity:1" />
    <rect
       y="0.29985681"
       x="0.10293527"
       height="0.19688089"
       width="0.41818318"
       id="rect3673"
       style="fill:none;stroke:#000000;stroke-width:0.00457964;stroke-linecap:round;stroke-linejoin:round;stroke-miterlimit:4;stroke-dasharray:none" />
  </g>
</svg>
